<svg width="20" height="20" viewBox="0 0 20 20" fill="none" xmlns="http://www.w3.org/2000/svg">
<path d="M8.33398 18.3334V12.8584" stroke="#F7F7FF" stroke-width="1.5" stroke-linecap="round" stroke-linejoin="round"/>
<path d="M10 9.16675H10.0083" stroke="#F7F7FF" stroke-width="1.5" stroke-linecap="round" stroke-linejoin="round"/>
<path d="M10 5.83325H10.0083" stroke="#F7F7FF" stroke-width="1.5" stroke-linecap="round" stroke-linejoin="round"/>
<path d="M11.666 12.8584V18.3334" stroke="#F7F7FF" stroke-width="1.5" stroke-linecap="round" stroke-linejoin="round"/>
<path d="M12.5 13.3333C11.7788 12.7924 10.9015 12.5 10 12.5C9.09846 12.5 8.22123 12.7924 7.5 13.3333" stroke="#F7F7FF" stroke-width="1.5" stroke-linecap="round" stroke-linejoin="round"/>
<path d="M13.334 9.16675H13.3423" stroke="#F7F7FF" stroke-width="1.5" stroke-linecap="round" stroke-linejoin="round"/>
<path d="M13.334 5.83325H13.3423" stroke="#F7F7FF" stroke-width="1.5" stroke-linecap="round" stroke-linejoin="round"/>
<path d="M6.66602 9.16675H6.67435" stroke="#F7F7FF" stroke-width="1.5" stroke-linecap="round" stroke-linejoin="round"/>
<path d="M6.66602 5.83325H6.67435" stroke="#F7F7FF" stroke-width="1.5" stroke-linecap="round" stroke-linejoin="round"/>
<path d="M15.0007 1.66675H5.00065C4.08018 1.66675 3.33398 2.41294 3.33398 3.33341V16.6667C3.33398 17.5872 4.08018 18.3334 5.00065 18.3334H15.0007C15.9211 18.3334 16.6673 17.5872 16.6673 16.6667V3.33341C16.6673 2.41294 15.9211 1.66675 15.0007 1.66675Z" stroke="#F7F7FF" stroke-width="1.5" stroke-linecap="round" stroke-linejoin="round"/>
</svg>
