<svg width="20" height="20" viewBox="0 0 20 20" fill="none" xmlns="http://www.w3.org/2000/svg">
<path d="M6.66602 1.6665V4.99984" stroke="#050534" stroke-width="1.5" stroke-linecap="round" stroke-linejoin="round"/>
<path d="M10 1.6665V4.99984" stroke="#050534" stroke-width="1.5" stroke-linecap="round" stroke-linejoin="round"/>
<path d="M13.334 1.6665V4.99984" stroke="#050534" stroke-width="1.5" stroke-linecap="round" stroke-linejoin="round"/>
<path d="M13.334 3.3335H15.0007C15.4427 3.3335 15.8666 3.50909 16.1792 3.82165C16.4917 4.13421 16.6673 4.55814 16.6673 5.00016V6.66683" stroke="#050534" stroke-width="1.5" stroke-linecap="round" stroke-linejoin="round"/>
<path d="M16.666 10V11.6667" stroke="#050534" stroke-width="1.5" stroke-linecap="round" stroke-linejoin="round"/>
<path d="M16.666 15V16.6667C16.666 17.1087 16.4904 17.5326 16.1779 17.8452C15.8653 18.1577 15.4414 18.3333 14.9993 18.3333H14.166" stroke="#050534" stroke-width="1.5" stroke-linecap="round" stroke-linejoin="round"/>
<path d="M10.8327 18.3335H9.16602" stroke="#050534" stroke-width="1.5" stroke-linecap="round" stroke-linejoin="round"/>
<path d="M5.83398 18.3333H5.00065C4.55862 18.3333 4.1347 18.1577 3.82214 17.8452C3.50958 17.5326 3.33398 17.1087 3.33398 16.6667V15" stroke="#050534" stroke-width="1.5" stroke-linecap="round" stroke-linejoin="round"/>
<path d="M3.33398 11.6667V10" stroke="#050534" stroke-width="1.5" stroke-linecap="round" stroke-linejoin="round"/>
<path d="M3.33398 6.66683V5.00016C3.33398 4.55814 3.50958 4.13421 3.82214 3.82165C4.1347 3.50909 4.55862 3.3335 5.00065 3.3335H6.66732" stroke="#050534" stroke-width="1.5" stroke-linecap="round" stroke-linejoin="round"/>
<path d="M6.66602 8.3335H11.666" stroke="#050534" stroke-width="1.5" stroke-linecap="round" stroke-linejoin="round"/>
<path d="M6.66602 11.6665H13.3327" stroke="#050534" stroke-width="1.5" stroke-linecap="round" stroke-linejoin="round"/>
<path d="M6.66602 15H10.8327" stroke="#050534" stroke-width="1.5" stroke-linecap="round" stroke-linejoin="round"/>
</svg>
